[img]http://img809.imageshack.us/img809/2680/posterfk.jpg[/img]
[code]
Thor 2011 TS READNFO XViD v2 - IMAGiNE

Ripper ...........: IMAGiNE           IMDB Rating.......:7.8/10                             
Video Codec.......: XVID              Release Date......:03/05/11
Audio Codec.......:MP3                Theatre Date......:27/04/11
Audio Bitrate.....:128                Runtime.......:1h 48mn
Subtitles.........:NIL                Language..........:ENGLISH
Resolution...... 720 x 304            IMDb URL.......... http://www.imdb.com/title/tt0800369/

DETAILS:

Video
ID                               : 0
Format                           : MPEG-4 Visual
Format profile                   : Advanced Simple@L5
Format settings, BVOP            : 2
Format settings, QPel            : No
Format settings, GMC             : No warppoints
Format settings, Matrix          : Default (MPEG)
Muxing mode                      : Packed bitstream
Codec ID                         : XVID
Codec ID/Hint                    : XviD
Duration                         : 1h 48mn
Bit rate                         : 1 829 Kbps
Width                            : 720 pixels
Height                           : 304 pixels
Display aspect ratio             : 2.35:1
Frame rate                       : 25.000 fps
Color space                      : YUV
Chroma subsampling               : 4:2:0
Bit depth                        : 8 bits
Scan type                        : Progressive
Compression mode                 : Lossy
Bits/(Pixel*Frame)               : 0.334
Stream size                      : 1.39 GiB (93%)
Writing library                  : XviD 61

Audio
ID                               : 1
Format                           : MPEG Audio
Format version                   : Version 1
Format profile                   : Layer 3
Codec ID                         : 55
Codec ID/Hint                    : MP3
Duration                         : 1h 48mn
Bit rate mode                    : Constant
Bit rate                         : 128 Kbps
Channel(s)                       : 2 channels
Sampling rate                    : 44.1 KHz
Compression mode                 : Lossy
Stream size                      : 99.5 MiB (7%)
Alignment                        : Split accross interleaves
Interleave, duration             : 40 ms (1.00 video frame)

Plot:The powerful but arrogant warrior Thor is cast out of the fantastic realm of Asgard and sent to 

live amongst humans on Earth, where he soon becomes one of their finest defenders.

SOURCES:
VIDEO:Thor.2011.TRUEFRENCH.TS.MD.XviD-RESOLUTiON,Thor.iNT.CAM.XviD.Hungarian-G1-CiNEDUB ...Thanks
AUDIO:Thanks m8ty

NOTES:

IMAGiNE bringing you another release..........Thor 2011 v2 Ok heres our v2 lol ....Anyway for this we 

used the new french cam ,but it was missing scenes so we append them with the cinedub release.

98% of the movie is the new source only a little bit is cinedubs video in a couple of parts and for 

secs at a time...

but only way to bring you a full release The french video still needing cleaning,so we did our normal 

stuff and the cinedub we already cleaned on our last release so we just cut the scenes from that one.
The audio just needed resyncing and then muxing over this encode.

Enjoy folks 
[/code]
Screens:
[img]http://img856.imageshack.us/img856/3623/63976020.jpg[/img]
[img]http://img820.imageshack.us/img820/6557/17321795.jpg[/img]
[img]http://img844.imageshack.us/img844/4228/79483943.jpg[/img]
[img]http://img40.imageshack.us/img40/2497/81770692.jpg[/img]
[img]http://img194.imageshack.us/img194/1414/87770561.png[/img]
[img]http://img810.imageshack.us/img810/3306/59864839.jpg[/img]